/* XPM */
static char *cake[] = {
/* columns rows colors chars-per-pixel */
"64 64 9 1 ",
"  c #980000",
". c #FF4040",
"X c #D9A066",
"o c #D0A174",
"O c #FF8080",
"+ c #E2BA94",
"@ c #EEC39A",
"# c #ECD7C2",
"$ c #FFEAD4",
/* pixels */
"$$$$$$$$$$$$$$$$$$$$$$$$$$$$$$$$$$$$$$$$$$$$$$$$$$$$############",
"$$$$$$$$$$$$$$$$$$$$$$$$$$$$$$$$$$$$$$$$$$$$$$$$$$$$############",
"$$$$$$$$$$$$$$$$$$$$$$$$$$$$$$$$$$$$$$$$$$$$$$$$$$$$############",
"$$$$$$$$$$$$$$$$$$$$$$$$$$$$$$$$$$$$$$$$$$$$$$$$$$$$$$##########",
"$$$$$$$$$$$$$$$$$$$$$$$$$$$$$$$$$$$$$$$$$$$$$$$$$$$$$$##########",
"$$$$$$$$$$$$$$$$$$$$$$$$$$$$$$$$$$$$$$$$$$$$$$$$$$$$$$$$########",
"$$$$$$$$$$$$$$$$$$$$$$$$$$$$$$$$$$$$$$$$$$$$$$$$$$$$$$$$########",
"$$$$$$$$$$$$$$$$$$$$$$$$$$$$$$$$$$$$$$$$$$$$$$$$$$$$$$$$$$$#####",
"$$$$$$$$$$$$$$$$$$$$$$$$$$$$$$$$$$$$$$$$$$$$$$$$$$$$$$$$$$$#####",
"$$$$$$$$$$$$$$$$$$$$$$$$$$$$$$$$$$$$$$$$$$$$$$$$$$$$$$$$$$$#####",
"$$$$$$$$$$$$$$$$$$$$$$$$$$$$$$$$$$$$$$$$$$$$$$$$$$$$$$$$$$$#####",
"$$$$$$$$$$$$$$$$$$$$$$$$$$$$$$$$$$$$$$$$$$$$$$$$$$$$$$$$$$$#####",
"XXXXXXXXXXXXXXXXXXXXXXXXXXXXXXXXXXXXXXXXXXXXXXXXXXXXXXXXXXXXXXXX",
"o@@@o@@@@@@@@@@o@@@@@@@@@@@@o@@o@@@o@@@o@@@@@@@@@@@o@@@o@@@+++o+",
"@@@@@@@@o@@@o@@@@@@oo@@@@@@@@@@@@@@@@@@@@@@@@o@@o@@@@@o@o@@+o+o+",
"@@o@@@@@@@@@@@@@o@@@@@@@o@o@@@@o@@@@@@@o@@o@@@@@@@@@@@@@@@@+++++",
"@@o@@o@@@@oo@@@@@@@@@@@@@@@@@@@@@@@o@@@o@@o@@@@@@@@@@@@@@@@+o+++",
"@@@@@@@@@@@@@@@@o@@@@o@@@@@@@@@@@@@@@@@o@@@@@@@@@@@@o@o@@@@+++++",
"@@@@@@o@@o@@@@@@@@@o@@@@@o@@@@o@o@@o@@@o@@@@@@o@@@@@@@@@@@@+++++",
"@o@@@@o@@@@@@@@@@@@@@o@@@@@o@@@@@@@@@@@@@@@@@@@o@@@o@@@@@@o+++o+",
"@@@@@@@@@@@@@o@ooo@@@@@@@@@@@@@@@@@@@@@@@@@o@@o@@@@@@@@@@o@+++++",
"@@@@o@@@@o@@@@@@@@@@@@@o@@@@@@@@o@@@o@@o@@o@@@@@o@@@o@@@@@o++o++",
"@o@@@@@o@@@@@o@@o@@@@o@@@@@@@o@@@@@@@@@@@@@@@o@@@@@@@@@@@@@+++++",
"@@@@@@@o@@@@@@@@@@@@@@@@@@@@@@@@@@@@@@@@@@@@@@@@@@@@@@@@@@@+++++",
"XXXXXXXXXXXXXXXXXXXXXXXXXXXXXXXXXXXXXXXXXXXXXXXXXXXXXXXXXXXXXXXX",
"XXXXXXXXXXXXXXXXXXXXXXXXXXXXXXXXXXXXXXXXXXXXXXXXXXXXXXXXXXXXXXXX",
"$$$$$$$$$$$$$$$$      $$$$$$$$$$$$$$$$$$$$      $$$$$###########",
"$$$$$$$$$$$$$$          $$$$$$$$$$$$$$$$          $$$###########",
"$$$$$$$$$$$$              $$$$$$$$$$$$              $$##########",
"$$$$$$$$$$$       ..       $$$$$$$$$$       ..       $##########",
"$$$$$$$$$$$      ....      $$$$$$$$$$      ....      $##########",
"$$$$$$$$$$      ......      $$$$$$$$      ......      $$$#######",
"$$$$$$$$$      ........      $$$$$$      ........      $$#######",
"$$$$$$$$$      ........      $$$$$$      ........      $$$$#####",
"$$$$$$$$$     ..........     $$$$$$     ..........     $$$$#####",
"$$$$$$$$      ....OO....      $$$$      ....OO....      $$$#####",
"$$$$$$$$      ....OO....      $$$$      ....OO....      $$$#####",
"$$$$$$$$      ....OO....      $$$$      ....OO....      $$$#####",
"$$$$$$$$      ....OO....      $$$$      ....OO....      $$$#####",
"$$$$$$$$      ....OO....      $$$$      ....OO....      $$$#####",
"$$$$$$$$      ....OO....      $$$$      ....OO....      $$$#####",
"$$$$$$$$$     ....OO....     $$$$$$     ....OO....     $$$$#####",
"$$$$$$$$$      ...OO...      $$$$$$      ...OO...      $$$$#####",
"$$$$$$$$$      ...OO...      $$$$$$      ...OO...      $$$$#####",
"$$$$$$$$$$      ..OO..      $$$$$$$$      ..OO..      $$$$$#####",
"$$$$$$$$$$$      .OO.      $$$$$$$$$$      .OO.      $$$$$$#####",
"$$$$$$$$$$$       ..       $$$$$$$$$$       ..       $$$$$$#####",
"$$$$$$$$$$$$              $$$$$$$$$$$$              $$$$$$$#####",
"$$$$$$$$$$$$$$          $$$$$$$$$$$$$$$$          $$$$$$$$$#####",
"$$$$$$$$$$$$$$$$      $$$$$$$$$$$$$$$$$$$$      $$$$$$$$$$$#####",
"XXXXXXXXXXXXXXXXXXXXXXXXXXXXXXXXXXXXXXXXXXXXXXXXXXXXXXXXXXXXXXXX",
"XXXXXXXXXXXXXXXXXXXXXXXXXXXXXXXXXXXXXXXXXXXXXXXXXXXXXXXXXXXXXXoX",
"o@@@o@@@@@@@@@@o@@@@@@@@@@@@o@@o@@@o@@@o@@@@@@@@@@@o@@@o@@@+++o+",
"@@@@@@@@o@@@o@@@@@@oo@@@@@@@@@@@@@@@@@@@@@@@@o@@o@@@@@o@o@@+o+o+",
"@@o@@@@@@@@@@@@@o@@@@@@@o@o@@@@o@@@@@@@o@@o@@@@@@@@@@@@@@@@+++++",
"@@o@@o@@@@oo@@@@@@@@@@@@@@@@@@@@@@@o@@@o@@o@@@@@@@@@@@@@@@@+o+++",
"@@@@@@@@@@@@@@@@o@@@@o@@@@@@@@@@@@@@@@@o@@@@@@@@@@@@o@o@@@@+++++",
"@@@@@@o@@o@@@@@@@@@o@@@@@o@@@@o@o@@o@@@o@@@@@@o@@@@@@@@@@@@+++++",
"@o@@@@o@@@@@@@@@@@@@@o@@@@@o@@@@@@@@@@@@@@@@@@@o@@@o@@@@@@o+++o+",
"@@@@@@@@@@@@@o@ooo@@@@@@@@@@@@@@@@@@@@@@@@@o@@o@@@@@@@@@@o@+++++",
"@@@@o@@@@o@@@@@@@@@@@@@o@@@@@@@@o@@@o@@o@@o@@@@@o@@@o@@@@@o++o++",
"@o@@@@@o@@@@@o@@o@@@@o@@@@@@@o@@@@@@@@@@@@@@@o@@@@@@@@@@@@@+++++",
"@@@@@@@o@@@@@@@@@@@@@@@@@@@@@@@@@@@@@@@@@@@@@@@@@@@@@@@@@@@+++++",
"XXXXXXXXXXXXXXXXXXXXXXXXXXXXXXXXXXXXXXXXXXXXXXXXXXXXXXXXXXXXXXXX"
};
