/* XPM */
static char *_620147126624[] = {
/* columns rows colors chars-per-pixel */
"64 64 55 1 ",
"  c black",
". c #010000",
"X c #000100",
"o c #010101",
"O c #000002",
"+ c #C74B0B",
"@ c #C74D0A",
"# c #C64C0B",
"$ c #C74D0C",
"% c #C84D0A",
"& c #C84C0C",
"* c #C94C0C",
"= c #C94D0D",
"- c #C84E0D",
"; c #C84C0E",
": c #3BBBFC",
"> c #3BBAFD",
", c #3EBBFD",
"< c #3CBBFE",
"1 c #3BBCFD",
"2 c #3CBCFD",
"3 c #3DBDFE",
"4 c #7DA9FB",
"5 c #5D92F8",
"6 c #5C93FA",
"7 c #7DA9FB",
"8 c #7DA9FB",
"9 c #5D94F9",
"0 c #7DA9FB",
"q c #5E95FA",
"w c #5A93FC",
"e c #7DA9FB",
"r c #5B94FD",
"t c #5C95FC",
"y c #5F94FC",
"u c #5E95FC",
"i c #FBBBAF",
"p c #FBBDB0",
"a c #FCBCB0",
"s c #FDBDB1",
"d c #FEBCB0",
"f c #FBFBFB",
"g c #FAFCFB",
"h c #FCFCFA",
"j c #FDFCFA",
"k c #FDFDFB",
"l c #FCFEFB",
"z c #FDFBFC",
"x c #FBFDFC",
"c c #FBFCFE",
"v c gray99",
"b c #FDFDFD",
"n c #FEFCFD",
"m c #FCFCFE",
"M c #FDFDFF",
/* pixels */
"0000000000000000000000000000000000000000000000000000000000000000",
"0000000000000000000000000000000000000000000000000000000000000000",
"000000000000000    000000000000000000000000000000000000000000000",
"00000000000000 vvvv 00000000008000000000000000000000000000000000",
"000000000000  vvvvvz 0000000000000000000000000000000000000000000",
"00000000000 hvvvvvvv 0 00000000800000000000000000000000000000000",
"00000000000 vvvvvvvvv x 0000000000000000000000000000000000000000",
"00000000000 vvzxvv1vvvvx 000000000000000000000000000000000000000",
"0000000000 vvv33vvv2zvvv 000000000000000000000000000000000000000",
"000000000 vvv3zjvvvvcvvx 000000000000000000000000000000000000000",
"000000   vvvvvvxvvvvvvvvx 00 00000000000000000000000000000000000",
"00000 vfvvvvvvzvvvvvxvvvv 0 c 0000000000000000000000000000000000",
"0800 vvvzxvvvvvvvvvvvvvvvv vv 0000000000000000000000000000000000",
"8007ccvvxzjvvvvvvvvvvvvvvvzvv 0 00000000000000000000000000000000",
"eu  xzvvzvzvvvvvvvvzvvvvvvxfvv v 0000000000000000000000000000000",
"7 vvvvvvvvvvvvvvvvvvzxvxvvvvvvvv 0000000000000000000000000000000",
"0 vvhvvvjcfjczvvvvjcjjcjvvvvvvvv 0000000000000000000000000000000",
"00 hvvvvcvjczxvvvvcjfcjcvvvvvvv 00000000000000000000000000000000",
"000 vv3zvvxjxzvvvj:ccjzcvvvvvv 000000000000000000000000000000000",
"0000 vv1vv:czxvvz3czjczjvvvvvvv 00000000000000000000000000000000",
"00000 zv3223vvj222:jcjc:hvvvvvvv 0000000000000000000000000000000",
"00000 vvvvj:33:32c3222:jvvvvvvvv00000000000000000000000000000000",
"000000   vjch31xjcf222vhvvvvvv  00000000000000000000000000000000",
"000000000 fzxfxh zcxjcjcv vg  0000000000000000000000000000000000",
"0000000000  vvv 0  vvvv  0  000000000000000000000000000000000000",
"000000000000   0000    80000000000000000000000000000000000000000",
"0000000000000000000000000000000000000000000000000000000000000000",
"0000000000000000000000000000000000000000000000000000000000000000",
"0000000000000000000000000000000000000000000000000000000000000000",
"0000000000000000000000000000000000000000000000000000000000000000",
"0000000000000000000000000000000000000000000000000000000000000000",
"0000000000000000000000000000000000000000000000000000000000000000",
"0000000000000000000000000000000000000000000000000000000000000000",
"0000000000000000000000000000000000000000000000000000000000000000",
"0000000000000000000000000000000000000000000000000000000000000000",
"0000000000000000000000000000000000000000000000000000000000000000",
"0000000000000000000000000000000000000000000000000000000000000000",
"0000000000000000000000000000000000000000000000000000000000000000",
"0000000000000000000000000000000000000000000000000000000000000000",
"0000000000000000000000000000000000000000000000000000000000000000",
"0000000000000000000000000000000000000000000000000000000000000000",
"0000000000000000000000000000000000000000000000000000000000000000",
"0000000000000000000000000000000000000000000000000000000000000000",
"0000000000000000000000000000000000000000000000000000000000000000",
"0000000000000000000000000000000000000000000000000000000000000000",
"0000000000000000000000000000000000000000000000000000000000000000",
"0000000000000000000000000000000000000000000000000000000000000000",
"0000000000000000000000000000000000000000000000000000000000000000",
"&aaaaaaia &aaaa&&aaaaaiia &aaaa&&aaaaaaaa &aaaa&&aaaaaaaa &aaaa&",
"a&&&&&&-& a&&-& a=&&&&--& a&&&& a=&&&&&&& a&&&& a&&&&&=&& a&&&& ",
"a&=&&-&&& a&&&&oa&-&&=&&& a=&&&oa&=&&=&&& a&&&& a&&&&&&&& a=&&&o",
"a&&&&&&&& a&&&- a&&&&&&&& a&&&& a&&&&&&&& a&&&& a&&&&&&&& a&&&-o",
"a&-***&&& a &&& a&&&+&*-& a &=& a&&&&-&-& a &&& a&&&&&&-& a &&& ",
"a&--**&&= &    &a&&&&*+-= &    &a&=&-&&=& &    &a&&&&&&-& &    &",
"a&&-*&&&- iaiia a&&#&&**& aaaii i-&&&&=&& aaiia a&&-&&&&& aaaia ",
"a-&&&&&&& i-=-& i-&&&&+*& a&&-= i-&&-=&&& a&--& a&&&&-&&& a&&-& ",
"i**-&&&&& i&&-* a&&--**-& i+--& i&&--**-& a&&-& i**-&&&&& i-**+ ",
"i*-&&&&&&oi*&&& a&&&***+& i*-&& a&=&***+& a&+*& i*-&&&&&&oi***& ",
"  &&&-&& a-*-&&   &&*-+- a+--*&   &&*%*- a++-*+   &&&-&& a-*-&& ",
"aa  --&& a**-&& aa  +-*+ a+*+*& aa  ++** i**#*- aa  --&& a---&& ",
"a*ii    i-&&**+ a&aa    a---&&& a&aa    a--***& a*ii    i-&&*+- ",
"a-*-aaa i&&#*+- a&&&aaa a&**&&- a&&&iia a&****- a-*-aaa i&&#+*- ",
"a&**=&& a&&&$&  a&&&&&& a&**&&  a&&&&&& a&&&#-  a&**=&& a&&&$&  ",
"&      &a      &&      &a      &&      &a      &&      &a      &"
};
