/* XPM */
static char *_620147138739[] = {
/* columns rows colors chars-per-pixel */
"64 64 59 1 ",
"  c black",
". c #010000",
"X c #000100",
"o c #010101",
"O c #000002",
"+ c #010002",
"@ c #010103",
"# c #C74B0B",
"$ c #C74C09",
"% c #C74D0A",
"& c #C64C0B",
"* c #C74D0C",
"= c #C84B09",
"- c #C94C0A",
"; c #C84D0A",
": c #CA4D0B",
"> c #C94E0B",
", c #C94B0E",
"< c #C84C0C",
"1 c #C94C0C",
"2 c #C94D0D",
"3 c #CA4D0D",
"4 c #C84E0D",
"5 c #C84C0E",
"6 c #00A700",
"7 c #01A800",
"8 c #01A802",
"9 c #7FCF0E",
"0 c #7FD00F",
"q c #82CF0D",
"w c #82CF0F",
"e c #80D00D",
"r c #80D00F",
"t c #80CF11",
"y c #81D110",
"u c #83D010",
"i c #5D92FA",
"p c #5C93FA",
"a c #7DA9FB",
"s c #7DA9FB",
"d c #7DA9FB",
"f c #5D94F9",
"g c #7DA9FB",
"h c #5E95FA",
"j c #7DA9FB",
"k c #7DA9FB",
"l c #5E93FD",
"z c #5B94FD",
"x c #5C95FC",
"c c #7DA9FB",
"v c #5E94FE",
"b c #5F94FE",
"n c #FBBBAF",
"m c #FCBDAE",
"M c #FBBDB0",
"N c #FCBCB0",
"B c #FDBDB1",
"V c #FEBCB0",
"C c #FCBCB2",
/* pixels */
"gggggggggggggggggggggggggggggggggggggggggggggggggggggggggggggggg",
"gggggggggggggggggggggggggggggggggggggggggggggggggggggggggggggggg",
"ggggggggggggggggggggmNNmNVmNNNMmmVNNNVmNVVNMmNmmNmNggggggggggggg",
"gggggggggggggggggggg<#55#<*.<<<5-<5.5;55;5.<#5*555.dgggggggggggg",
"ggggggggggggggggggdg5*;&*<5.;<*5<*5.5*<<*<.*<*5*5;.ggggggggggggg",
"gggggggggggggggggggg...............................ggggggggggggg",
"gggggggggggggggggggg#5<.&5;<*<<.*<<<55.*<<<<;<.5;5;ggggggggggggg",
"gggggggggggggggggggg;5*.5;-<<<<.<<;5;#.-<<<<<<.<5;;ggggggggggggg",
"gggggggggggggggggggg*#5.<***<**.5*<<*<.*<*<<*<.*<**ggggggggggggg",
"gggggggggggggggggggg...............................ggggggggggggg",
"gggggggggggggggggggg&5;<*<<.*<*<<<*.<#<<<<.*<<<<*<.ggggggggggggg",
"gggggggggggggggggggg5;<<55*.<<<<<<*.<<<<<*.<<<<<<<.ggggggggggggg",
"gggggggggggggggggggg<*<*;*5.*<<*<<5.*<*<<<.**<*<<5.ggggggggggggg",
"gggggggggggggggggggg......................@........ggggggggggggg",
"gggggggggggggggggggg*<;.<;*<;<*.*<<<*#.<*<<<#<.<5#;ggggggggggggg",
"gggggggggggggggggggg<<5.<55<5*5.*<<<55.*<<<<*<.*5**ggggggggggggg",
"gggggggggggggggggggg5*<.*#5*<<*.<*5*<*.*<*5*<*.*;*<gggdggggggggg",
"agggmNMmNmNNNNVmNNNM...............................ggggggggggggg",
"gggg5;<<;5*.55;55<<.gggggggggggggggggggggggggggggggggggggggggggg",
"dggg;55;5;5.;55;5;5.gggggggggggggggggggggggggggggggggggggggggggg",
"gggg................gggggggggggggggggggggggggggggggggggggggggggg",
"gggg5;5.<<*<*<*.*;5;gggggggggggggggggggggggggggggggggggggggggggg",
"gggg<;5.;<5#<<<.;<;5gggggggggggggggggggggggggggggggggggggggggggg",
"gggg<5*.5<*<<<*.<<&5gggggggggggggggggggggggggggggggggggggggggggg",
"gggg................gggggggggggggggggggggggggggggggggggggggggggg",
"gggg<;*<*<*.<<*<5&&.gggggggggggggggggggggggggggggggggggggggggggg",
"gggg;555<<<.;<<<5;;.gggggggggggggggggggggggggggggggggggggggggggg",
"gggg;5;&<<*.<<#*;5*.gggggggggggggggggggggggggggggggggggggggggggg",
"gggg................gggggggggggggggggggggggggggggggggggggggggggg",
"gggg5*5.<*<<5**.<*<<gggggggggggggggggggggggggggggggggggggggggggg",
"gggg5<<.<*<<5<<.<<<;gggggggggggggggggggggggggggggggggggggggggggg",
"gggg;;<.<<<<;<<.<<55gdgggggggggggggggggggggggggggggggggggggggggg",
"gggg................gggggggggggggggggg....gggggggggggggggggggggg",
"gggggggggggggggggggggggggggggggggggcd.e0te.ggggggggggggggggggggg",
"ggggggggggggggggggggggggggggggggggg..te0yt0.gggggggggggggggggggg",
"gggggggggggggggggggggggggggggggggg.yet0yyet.g.gggggggggggggggggg",
"gggggggggggggggggggggggggggggggggg.9yey90tt0.y.ggggggggggggggggg",
"gggggggggggggggggggggggggggggggggg.ytewyy7ey000.gggggggggggggggg",
"ggggggggggggggggggggggggggggggggg.y9e76e996e9ey.gggggggggggggggg",
"gggggggggggggggggggggggggggggggg.99y7t0yy9yt0y0.gggggggggggggggg",
"ggggggggggggggggggggggggggggg...09y9y9y9y9y9y9y9.gc.gggggggggggg",
"gggggggggggggggggggggggggggg.0tyey9y9y9y9y9y9y9y.g.y.ggggggggggg",
"ggggggggggggggggggggggggggg.e9e0y9y9y9y9y9y9y9y90.0e.ggggggggggg",
"ggggggggggggggggggggggggggg.y09y9y9y9y9y9y9y9y9yw000.c.ggggggggg",
"ggggggggggggggggggggggggg..yyww9y9y9y9y9y9y9y9y90t0tt.0.gggggggg",
"gggggggggggggggggggggggg.y0e0yee9y9y9y9y9y9y9y9y0e0y00e.gggggggg",
"gggggggggggggggggggggggg.0ye0ee0y9y9y9y9y9y9y9y9yeyty00.gggggggg",
"ggggggggggggggggggggggggg.9t0ytt9y9y9y9y9y9y9y9y99yee0.ggggggggg",
"*NNNVVVVN.5mVMV#5NNmVNVNN.*VmNN;5NVVVVNNM.5NNNN*5VNNVVVVN.5mNmN5",
"V#55;5<;*.m5#*5.N555*#<;#.M#5&5.m5#;#;5;<.m&5&5.m<5#<;<;*.N55&5.",
"V<5;<55;#.M5;55.V#5<<55<*.V5;5*.V#55555;<.V5;5*.V<55<5;5#.M55;;.",
"N<;5<;;;5.V#5**.V<;<<<;;#.V*55*.V*<;5;;;*.V<<;*.N;5;;5;;5.V#;5*.",
"N#;;<<55*.M.;5;.V#*;55;55.V.*<*.N*<<;555<.M.*<<.N#5;<<55*.M.<5;.",
"N5555<;5<.#....*V;555;555.*....*N#5<55;5<.*....*N55;<<;5<.#....*",
"N5;&<5;5<.NNNVM.N55;;<<<5.MMMVM.m55&5;<<*.VNVNM.N55&<55;<.NNNVM.",
"N;<<555;*.V*#;*.N;;;55<<;.V#<;#.V;;555<<<.M#<;*.N;;<55;5*.V*#;*.",
"n;<;<<5;<.N#*#<.N##;5;<;*.V<<#*.N#5;;<<;<.M*<#5.n;<;<<5;<.N#*#<.",
"V55<<<;#*.V<<<5.N*55;5<-<.N<<<<.V<5<<<<#*.V#<<5.V55<<<;#*.V<<<5.",
"..5;<;*5.V#<;<5...#*<;55.M#<;<<...**<;55.M#<;<<...5;<;*5.V#<;<5.",
"VM..<<<*.M#**<*.VM..<<;<.V<<*<*.MN..<<;;.V<;*<<.VM..<<<*.M#**<*.",
"N;VN....N;<*<<<.N5mV...@N;5;<<<.N5NV....N;55<<*.N;VN....N;<*<<<.",
"N&*#NVM.N<<#<<&.N*<<MVM.N55&;5;.N*#<NNM.V<;#<;5.N&*#NVM.N<<#<<&.",
"V*<<5;5.N5*<**..V#<*<<*.V*;<**..N5*<<*5.V<5**<..V*<<5;5.N5*<**..",
"#......5N......**......#V......<*......*M......*#......5N......*"
};
